<?xml version="1.0" encoding="UTF-8"?>
<svg width="32" height="32" viewBox="0 0 32 32" fill="none" xmlns="http://www.w3.org/2000/svg">
  <!-- Map pin shape -->
  <path d="M16 0C10.6 0 6.2 4.4 6.2 9.8C6.2 12.5 7.2 15.3 9.2 17.2L15.1 30.3C15.4 31 16.6 31 16.9 30.3L22.9 17.2C24.8 15.2 25.8 12.4 25.8 9.8C25.8 4.4 21.4 0 16 0Z" fill="#1a8cff"/>

  <!-- Door icon -->
  <path d="M20.2 9.4H11.8C11.3 9.4 10.9 9.8 10.9 10.3V21.1C10.9 21.6 11.3 22 11.8 22H20.2C20.7 22 21.1 21.6 21.1 21.1V10.3C21.1 9.8 20.7 9.4 20.2 9.4Z" fill="#1a8cff" stroke="white" stroke-width="0.75"/>
  <path d="M10.9 13.1H21.1" stroke="white" stroke-width="0.5"/>
  <circle cx="17.3" cy="17.3" r="0.9" fill="white"/>
</svg>