<svg width="512" height="512" viewBox="0 0 512 512" fill="none" xmlns="http://www.w3.org/2000/svg">
  <rect width="512" height="512" rx="100" fill="#3b82f6"/>
  <path d="M359 140H153C145.268 140 139 146.268 139 154V358C139 365.732 145.268 372 153 372H359C366.732 372 373 365.732 373 358V154C373 146.268 366.732 140 359 140Z" fill="#1e3a8a" stroke="white" stroke-width="12"/>
  <path d="M139 220H373" stroke="white" stroke-width="8"/>
  <circle cx="253" cy="296" r="40" fill="#ffffff"/>
  <path d="M233 288L253 316L273 288" stroke="#3b82f6" stroke-width="8" stroke-linecap="round" stroke-linejoin="round"/>
  <path d="M253 256V296" stroke="#3b82f6" stroke-width="8" stroke-linecap="round"/>
  <path d="M193 170C193 170 193 140 253 140C313 140 313 170 313 170" stroke="white" stroke-width="8" stroke-linecap="round"/>
  <circle cx="220" cy="180" r="10" fill="#ffffff"/>
  <circle cx="286" cy="180" r="10" fill="#ffffff"/>
  <path d="M139 154C139 146.268 145.268 140 153 140H359C366.732 140 373 146.268 373 154V358C373 365.732 366.732 372 359 372H153C145.268 372 139 365.732 139 358V154Z" stroke="white" stroke-width="12"/>
  <path d="M253 186L253 220" stroke="white" stroke-width="8" stroke-linecap="round"/>
  <path d="M312 186L312 220" stroke="white" stroke-width="8" stroke-linecap="round"/>
  <path d="M193 186L193 220" stroke="white" stroke-width="8" stroke-linecap="round"/>
  <path d="M407 256L407 360" stroke="white" stroke-width="12" stroke-linecap="round"/>
  <path d="M127 256L127 360" stroke="white" stroke-width="12" stroke-linecap="round"/>
  <path d="M407 268L373 268" stroke="white" stroke-width="8" stroke-linecap="round"/>
  <path d="M407 348L373 348" stroke="white" stroke-width="8" stroke-linecap="round"/>
  <path d="M127 268L159 268" stroke="white" stroke-width="8" stroke-linecap="round"/>
  <path d="M127 348L159 348" stroke="white" stroke-width="8" stroke-linecap="round"/>
  <path d="M396 432L396 372H116L116 432" stroke="white" stroke-width="12" stroke-linecap="round" stroke-linejoin="round"/>
  <circle cx="355" cy="186" r="28" fill="#ef4444" stroke="white" stroke-width="6"/>
  <path d="M344 175L366 197" stroke="white" stroke-width="6" stroke-linecap="round"/>
  <path d="M366 175L344 197" stroke="white" stroke-width="6" stroke-linecap="round"/>
  
  <!-- Text with DoorPro -->
  <path d="M170 450H146V398H170C185 398 195 408 195 424C195 440 185 450 170 450ZM170 410H160V438H170C178 438 182 432 182 424C182 416 178 410 170 410Z" fill="white"/>
  <path d="M225 450C210 450 200 439 200 424C200 409 210 398 225 398C240 398 250 409 250 424C250 439 240 450 225 450ZM225 410C217 410 213 416 213 424C213 432 217 438 225 438C233 438 237 432 237 424C237 416 233 410 225 410Z" fill="white"/>
  <path d="M279 450C264 450 254 439 254 424C254 409 264 398 279 398C294 398 304 409 304 424C304 439 294 450 279 450ZM279 410C271 410 267 416 267 424C267 432 271 438 279 438C287 438 291 432 291 424C291 416 287 410 279 410Z" fill="white"/>
  <path d="M317 450V398H331V438H357V450H317Z" fill="white"/>
  <path d="M370 450V436H385C390 436 393 434 393 430C393 426 390 424 385 424H370V398H384C399 398 407 408 407 421C407 434 399 444 384 444H380V450H370Z" fill="white"/>
</svg>